HIERARCHY
ROOT Hips
{
    OFFSET 0.000000 0.000000 0.000000
    CHANNELS 6 Xposition Yposition Zposition Zrotation Xrotation Yrotation
    JOINT Spine
    {
        OFFSET -0.000000 8.359812 0.000000
        CHANNELS 3 Zrotation Xrotation Yrotation
        JOINT Spine1
        {
            OFFSET -0.000000 28.141317 0.000000
            CHANNELS 3 Zrotation Xrotation Yrotation
            JOINT Neck
            {
                OFFSET -0.000000 28.025745 2.547795
                CHANNELS 3 Zrotation Xrotation Yrotation
                JOINT Head
                {
                    OFFSET -0.000000 14.272848 -2.038978
                    CHANNELS 3 Zrotation Xrotation Yrotation
                    End Site
                    {
                        OFFSET -0.000000 25.487228 0.000000
                    }
                }
            }
            JOINT LeftShoulder
            {
                OFFSET 4.059574 26.120710 -0.180480
                CHANNELS 3 Zrotation Xrotation Yrotation
                JOINT LeftArm
                {
                    OFFSET 11.584161 0.000000 0.000000
                    CHANNELS 3 Zrotation Xrotation Yrotation
                    JOINT LeftForeArm
                    {
                        OFFSET 30.766815 0.000000 0.000000
                        CHANNELS 3 Zrotation Xrotation Yrotation
                        JOINT LeftHand
                        {
                            OFFSET 29.436810 0.000000 0.000000
                            CHANNELS 3 Zrotation Xrotation Yrotation
                            End Site
                            {
                                OFFSET 15.292337 0.000000 0.000000
                            }
                        }
                    }
                }
            }
            JOINT RightShoulder
            {
                OFFSET -4.095355 26.120710 -0.180480
                CHANNELS 3 Zrotation Xrotation Yrotation
                JOINT RightArm
                {
                    OFFSET -11.584161 0.000000 0.000000
                    CHANNELS 3 Zrotation Xrotation Yrotation
                    JOINT RightForeArm
                    {
                        OFFSET -30.766815 0.000000 0.000000
                        CHANNELS 3 Zrotation Xrotation Yrotation
                        JOINT RightHand
                        {
                            OFFSET -29.436810 0.000000 0.000000
                            CHANNELS 3 Zrotation Xrotation Yrotation
                            End Site
                            {
                                OFFSET -15.292337 0.000000 0.000000
                            }
                        }
                    }
                }
            }
        }
    }
    JOINT LeftUpLeg
    {
        OFFSET 10.194892 0.000000 0.000000
        CHANNELS 3 Zrotation Xrotation Yrotation
        JOINT LeftLeg
        {
            OFFSET -0.000000 -32.520012 0.000000
            CHANNELS 3 Zrotation Xrotation Yrotation
            JOINT LeftFoot
            {
                OFFSET -0.000000 -49.106510 0.000000
                CHANNELS 3 Zrotation Xrotation Yrotation
                JOINT LeftToeBase
                {
                    OFFSET -0.000000 -6.626679 15.292337
                    CHANNELS 3 Zrotation Xrotation Yrotation
                    End Site
                    {
                        OFFSET -0.000000 0.000000 4.077957
                    }
                }
            }
        }
    }
    JOINT RightUpLeg
    {
        OFFSET -10.194892 0.000000 0.000000
        CHANNELS 3 Zrotation Xrotation Yrotation
        JOINT RightLeg
        {
            OFFSET -0.000000 -32.520012 0.000000
            CHANNELS 3 Zrotation Xrotation Yrotation
            JOINT RightFoot
            {
                OFFSET -0.000000 -49.106510 0.000000
                CHANNELS 3 Zrotation Xrotation Yrotation
                JOINT RightToeBase
                {
                    OFFSET -0.000000 -6.626679 15.292337
                    CHANNELS 3 Zrotation Xrotation Yrotation
                    End Site
                    {
                        OFFSET -0.000000 0.000000 4.077957
                    }
                }
            }
        }
    }
}
MOTION
Frames:    4
Frame Time:    0.008333
-86.754539    87.869568    117.818260    -12.256901    -3.533106    73.038284    0.845253    -9.328568    1.101020    -0.431778    8.768022    1.065222    3.445050    23.797894    26.869501    -15.131657    -18.599287    23.832077    8.188436    -0.963945    -1.851880    -82.472733    40.549030    15.254438    9.343247    -3.530692    -35.799137    -21.764048    0.199430    -3.679206    -13.210542    2.968660    2.273912    82.939606    64.153786    -7.946606    -8.873899    -10.347319    41.157173    2.115180    -7.252468    -11.189819    8.044178    -20.305117    -3.241046    -7.091625    15.436478    -11.657838    2.804517    -9.026870    26.483517    0.000000    0.000000    0.000000    2.794046    -17.531723    4.245353    2.403009    12.135927    3.114780    3.585105    -1.331036    -0.695586    0.000000    0.000000    0.000000    
-86.896179    87.831909    117.847351    -12.224435    -3.423824    73.076744    0.771741    -9.233701    1.141608    -0.108918    8.889271    1.087833    3.283548    23.676939    26.961075    -15.189856    -18.699512    23.882772    8.094441    -1.045540    -1.795117    -82.118240    40.122116    15.310355    9.494852    -3.729043    -36.366432    -21.914406    0.097464    -3.628526    -13.381251    2.918801    2.279576    82.604385    63.791916    -7.555812    -8.891004    -10.400513    40.787571    2.543442    -7.368360    -10.944543    7.900933    -20.344326    -3.295280    -6.961491    15.442984    -12.416185    2.976773    -9.159716    27.184343    0.000000    0.000000    0.000000    2.778762    -17.715860    3.946981    2.273079    12.323699    3.259829    3.459380    -1.498644    -0.528749    0.000000    0.000000    0.000000    
-87.041893    87.799278    117.872643    -12.193866    -3.326051    73.135445    0.765504    -9.146822    1.186589    0.079218    9.021188    1.119169    3.342910    23.780277    27.071745    -15.613448    -18.956633    23.849932    8.218001    -1.156181    -1.793661    -81.964645    39.680431    15.383747    9.653577    -3.901441    -36.856831    -21.858639    -0.000612    -3.515637    -13.334127    2.835441    2.326210    81.892097    62.928391    -6.929926    -8.570301    -10.105524    40.430599    2.803369    -7.234230    -10.505739    7.741370    -20.477488    -3.154196    -6.808517    15.585740    -13.401239    3.233093    -9.193038    28.086508    0.000000    0.000000    0.000000    2.759397    -17.908522    3.660444    2.150503    12.512575    3.390494    3.363844    -1.638260    -0.309127    0.000000    0.000000    0.000000    
-87.193642    87.780670    117.912308    -12.241426    -3.275532    73.175934    0.723555    -9.130595    1.227721    0.471065    9.199570    1.132139    3.291829    23.682230    27.147188    -15.890569    -18.940710    23.843645    8.160708    -1.178295    -1.688272    -81.641182    39.281414    15.287631    9.751973    -4.071771    -37.363071    -21.190971    -0.125682    -3.439599    -13.454043    2.694303    2.292963    81.622559    62.656029    -6.707051    -8.587229    -10.137400    40.079025    3.106776    -7.313390    -10.353349    7.640343    -20.730509    -2.912843    -6.614611    15.827753    -14.409147    3.577229    -9.152009    28.981625    0.000000    0.000000    0.000000    2.825255    -18.189903    3.448415    2.028106    12.742631    3.509150    3.314083    -1.694073    -0.180443    0.000000    0.000000    0.000000    
